<svg xmlns="http://www.w3.org/2000/svg" aria-hidden="true" style="width:0;height:0;position:absolute;overflow:hidden"><defs><symbol id="icon-arrow-pagination-right-light" viewBox="0 0 32 32"><path fill="#f8f8f8" d="M14.133 16.947c-.244-.241-.395-.576-.395-.947s.151-.705.395-.947l6.12-6.107a1.333 1.333 0 0 0-.94-2.281c-.367 0-.699.148-.94.388l-6.12 6.12c-.723.724-1.17 1.723-1.17 2.827s.447 2.103 1.17 2.827l6.12 6.12a1.334 1.334 0 1 0 1.88-1.894l-6.12-6.107z" opacity=".5" style="fill:var(--color1,#f8f8f8)"/></symbol><symbol id="icon-bascket-dark-theme" viewBox="0 0 32 32"><path fill="#fff" stroke="#fff" stroke-linecap="round" stroke-linejoin="round" stroke-width="2.667" d="M12 29.333a1.333 1.333 0 0 0 0-2.666v0a1.333 1.333 0 0 0 0 2.666v0zm14.667 0a1.333 1.333 0 0 0 0-2.666v0a1.333 1.333 0 0 0 0 2.666v0z" style="fill:var(--color2,#fff);stroke:var(--color2,#fff)"/><path fill="none" stroke="#fff" stroke-linecap="round" stroke-linejoin="round" stroke-width="2.4" d="M1.333 1.333h5.333l3.573 17.853a2.671 2.671 0 0 0 2.616 2.147l.054-.001h-.003 13.011a2.668 2.668 0 0 0 2.613-2.13l.003-.017 2.133-11.187H7.999" style="stroke:var(--color2,#fff)"/></symbol><symbol id="icon-active-double-active-right" viewBox="0 0 32 32"><path fill="#9bb537" d="M32 16c0 8.837-7.163 16-16 16S0 24.837 0 16 7.163 0 16 0s16 7.163 16 16z" style="fill:var(--color3,#9bb537)"/><path fill="#050505" d="M19.927 16.516a.724.724 0 0 0 0-1.032l-3.338-3.331a.727.727 0 0 1 .497-1.26c.208 0 .395.087.528.226l3.338 3.338c.394.395.638.94.638 1.542s-.244 1.147-.638 1.542l-3.338 3.338a.728.728 0 0 1-1.026-1.033l3.338-3.331z" style="fill:var(--color4,#050505)"/><path fill="#050505" d="M14.836 16.516a.724.724 0 0 0 0-1.032l-3.338-3.331a.727.727 0 0 1 .497-1.26c.208 0 .395.087.528.226l3.338 3.338c.394.395.638.94.638 1.542s-.244 1.147-.638 1.542l-3.338 3.338a.728.728 0 0 1-1.026-1.033l3.338-3.331z" style="fill:var(--color4,#050505)"/></symbol><symbol id="icon-bascket-active" viewBox="0 0 32 32"><path fill="#9bb537" stroke="#9bb537" stroke-linecap="round" stroke-linejoin="round" stroke-width="2.667" d="M12 29.333a1.333 1.333 0 0 0 0-2.666v0a1.333 1.333 0 0 0 0 2.666v0zm14.667 0a1.333 1.333 0 0 0 0-2.666v0a1.333 1.333 0 0 0 0 2.666v0z" style="fill:var(--color3,#9bb537);stroke:var(--color3,#9bb537)"/><path fill="none" stroke="#9bb537" stroke-linecap="round" stroke-linejoin="round" stroke-width="2.4" d="M1.333 1.333h5.333l3.573 17.853a2.671 2.671 0 0 0 2.616 2.147l.054-.001h-.003 13.011a2.668 2.668 0 0 0 2.613-2.13l.003-.017 2.133-11.187H7.999" style="stroke:var(--color3,#9bb537)"/></symbol><symbol id="icon-bascket-default-dark" viewBox="0 0 32 32"><path stroke-linecap="round" stroke-linejoin="round" stroke-width="2.667" d="M12 29.333a1.333 1.333 0 0 0 0-2.666 1.333 1.333 0 0 0 0 2.666zm14.667 0a1.333 1.333 0 0 0 0-2.666 1.333 1.333 0 0 0 0 2.666z"/><path stroke-linecap="round" stroke-linejoin="round" stroke-width="2.4" d="M1.333 1.333h5.333l3.573 17.853a2.671 2.671 0 0 0 2.616 2.147l.054-.001h-.003 13.011a2.668 2.668 0 0 0 2.613-2.13l.003-.017 2.133-11.187H7.999"/></symbol><symbol id="icon-burger-active" viewBox="0 0 32 32"><path fill="none" stroke="#9bb537" stroke-linecap="round" stroke-linejoin="round" stroke-width="2" d="M28 13.333H4M28 8H4m24 10.667H4M28 24H4" style="stroke:var(--color3,#9bb537)"/></symbol><symbol id="icon-burger-default-darksvg" viewBox="0 0 32 32"><path fill="none" stroke="#fff" stroke-linecap="round" stroke-linejoin="round" stroke-width="2" d="M28 13.333H4M28 8H4m24 10.667H4M28 24H4" style="stroke:var(--color2,#fff)"/></symbol><symbol id="icon-burger-default-light" viewBox="0 0 32 32"><path stroke-linecap="round" stroke-linejoin="round" stroke-width="2" d="M28 13.333H4M28 8H4m24 10.667H4M28 24H4"/></symbol><symbol id="icon-close-input-default" viewBox="0 0 32 32"><path stroke-linecap="round" stroke-linejoin="round" stroke-width="3.556" d="M24 8 8 24M8 8l16 16"/></symbol><symbol id="icon-search--default" viewBox="0 0 32 32"><path d="M28.948 27.054 24 22.147a11.926 11.926 0 0 0 2.639-7.508c0-6.627-5.373-12-12-12s-12 5.373-12 12 5.373 12 12 12c2.852 0 5.472-.995 7.531-2.657l-.023.018 4.907 4.907a1.333 1.333 0 0 0 1.894 0 1.33 1.33 0 0 0-.001-1.853zM14.667 24a9.333 9.333 0 1 1 0-18.666 9.333 9.333 0 1 1 0 18.666z"/></symbol><symbol id="icon-search-active" viewBox="0 0 32 32"><path fill="#9bb537" d="M28.948 27.054 24 22.147a11.926 11.926 0 0 0 2.639-7.508c0-6.627-5.373-12-12-12s-12 5.373-12 12 5.373 12 12 12c2.852 0 5.472-.995 7.531-2.657l-.023.018 4.907 4.907a1.333 1.333 0 0 0 1.894 0 1.33 1.33 0 0 0-.001-1.853zM14.667 24a9.333 9.333 0 1 1 0-18.666 9.333 9.333 0 1 1 0 18.666z" style="fill:var(--color3,#9bb537)"/></symbol><symbol id="icon-select-arrow-down" viewBox="0 0 32 32"><path stroke-linecap="round" stroke-linejoin="round" stroke-width="3.556" d="m8 12 8 8 8-8"/></symbol><symbol id="icon-select-arrow-down-dark-theme" viewBox="0 0 32 32"><path fill="none" stroke="#fff" stroke-linecap="round" stroke-linejoin="round" stroke-width="3.556" d="m8 12 8 8 8-8" style="stroke:var(--color2,#fff)"/></symbol><symbol id="icon-select-search-default-dark-theme" viewBox="0 0 32 32"><path fill="#fff" d="M28.948 27.054 24 22.147a11.926 11.926 0 0 0 2.639-7.508c0-6.627-5.373-12-12-12s-12 5.373-12 12 5.373 12 12 12c2.852 0 5.472-.995 7.531-2.657l-.023.018 4.907 4.907a1.333 1.333 0 0 0 1.894 0 1.33 1.33 0 0 0-.001-1.853zM14.667 24a9.333 9.333 0 1 1 0-18.666 9.333 9.333 0 1 1 0 18.666z" opacity=".5" style="fill:var(--color2,#fff)"/></symbol><symbol id="icon-slider-arrow-left" viewBox="0 0 32 32"><path fill="#050505" d="M32 16c0 8.837-7.163 16-16 16S0 24.837 0 16 7.163 0 16 0s16 7.163 16 16z" style="fill:var(--color4,#050505)"/><path fill="#f8f8f8" d="M12.073 16.516a.724.724 0 0 1 0-1.032l3.338-3.331a.727.727 0 0 0-.497-1.26.728.728 0 0 0-.528.226l-3.338 3.338c-.394.395-.638.94-.638 1.542s.244 1.147.638 1.542l3.338 3.338a.728.728 0 0 0 1.026-1.033l-3.338-3.331z" opacity=".5" style="fill:var(--color1,#f8f8f8)"/><path fill="#f8f8f8" d="M17.164 16.516a.724.724 0 0 1 0-1.032l3.338-3.331a.727.727 0 0 0-.497-1.26.728.728 0 0 0-.528.226l-3.338 3.338c-.394.395-.638.94-.638 1.542s.244 1.147.638 1.542l3.338 3.338a.728.728 0 0 0 1.026-1.033l-3.338-3.331z" opacity=".5" style="fill:var(--color1,#f8f8f8)"/></symbol><symbol id="icon-slider-arrow-right" viewBox="0 0 32 32"><path d="M17.867 16.947a1.328 1.328 0 0 0 .001-1.894l-6.12-6.107a1.333 1.333 0 0 1 .94-2.281c.367 0 .699.148.94.388l6.12 6.12c.723.724 1.17 1.723 1.17 2.827s-.447 2.103-1.17 2.827l-6.12 6.12a1.334 1.334 0 1 1-1.88-1.894l6.12-6.107z"/></symbol><symbol id="icon-star-active" viewBox="0 0 32 32"><path fill="#eea10c" d="M13.826 3.262c.686-2.105 3.664-2.105 4.347 0l1.931 5.943a2.292 2.292 0 0 0 2.174 1.582h6.251c2.215 0 3.134 2.834 1.344 4.135l-5.058 3.673a2.287 2.287 0 0 0-.825 2.572l-.005-.016 1.931 5.945c.686 2.105-1.726 3.858-3.518 2.555l-5.056-3.673c-.372-.273-.839-.437-1.344-.437s-.972.164-1.35.441l.006-.004-5.056 3.673c-1.792 1.303-4.201-.45-3.518-2.555l1.931-5.943a2.282 2.282 0 0 0-.823-2.553l-.006-.004-5.058-3.673c-1.79-1.303-.869-4.137 1.344-4.137h6.251a2.287 2.287 0 0 0 2.167-1.561l.005-.016 1.934-5.943z" style="fill:var(--color5,#eea10c)"/></symbol><symbol id="icon-unactive-star" viewBox="0 0 32 32"><path fill="#f8f8f8" d="M13.826 3.262c.686-2.105 3.664-2.105 4.347 0l1.931 5.943a2.292 2.292 0 0 0 2.174 1.582h6.251c2.215 0 3.134 2.834 1.344 4.135l-5.058 3.673a2.287 2.287 0 0 0-.825 2.572l-.005-.016 1.931 5.945c.686 2.105-1.726 3.858-3.518 2.555l-5.056-3.673c-.372-.273-.839-.437-1.344-.437s-.972.164-1.35.441l.006-.004-5.056 3.673c-1.792 1.303-4.201-.45-3.518-2.555l1.931-5.943a2.282 2.282 0 0 0-.823-2.553l-.006-.004-5.058-3.673c-1.79-1.303-.869-4.137 1.344-4.137h6.251a2.287 2.287 0 0 0 2.167-1.561l.005-.016 1.934-5.943z" opacity=".1" style="fill:var(--color1,#f8f8f8)"/></symbol><symbol id="icon-arrow-left" viewBox="0 0 213 32"><path fill="#fff" d="m0 16 26.667 15.396V.604L0 16zm24 2.667h189.333v-5.333H24v5.333z" style="fill:var(--color2,#fff)"/></symbol><symbol id="icon-switch-dark-theme" viewBox="0 0 48 32"><path fill="#fff" style="fill:var(--color1,#fff)" d="M5.02 6.902h28.863v12.549H5.02z"/><path style="fill:var(--color2,#000)" d="M11.294 6.902h16.314a6.275 6.275 0 0 1 .001 12.549H11.295a6.274 6.274 0 0 1 0-12.548z"/><path fill="#f3f3f3" style="fill:var(--color3,#f3f3f3)" d="M33.506 13.176a5.898 5.898 0 1 1-11.797-.001 5.898 5.898 0 0 1 11.797.001z"/></symbol><symbol id="icon-switch_1" viewBox="0 0 50 32"><path fill="#cecdcd" style="fill:var(--color1,#cecdcd)" d="M13.176 6.902H29.49a6.274 6.274 0 0 1 0 12.549H13.176a6.274 6.274 0 0 1 0-12.548z"/><path fill="#f8f8f8" style="fill:var(--color2,#f8f8f8)" d="M19.075 13.176a5.898 5.898 0 1 1-11.797-.001 5.898 5.898 0 0 1 11.797.001z"/></symbol><symbol id="icon-heart" viewBox="0 0 32 32"><path fill="none" opacity=".5" stroke="#f8f8f8" style="stroke:var(--color1,#f8f8f8)" stroke-linejoin="round" stroke-linecap="round" stroke-width="2.909" d="M15.99 6.848C13.325 3.731 8.879 2.892 5.539 5.747c-3.34 2.854-3.811 7.625-1.187 11.001 2.182 2.806 8.781 8.724 10.944 10.64.241.214.364.321.503.364a.677.677 0 0 0 .386-.001l-.005.001c.143-.042.262-.15.505-.364 2.163-1.916 8.764-7.834 10.944-10.64 2.623-3.375 2.211-8.177-1.187-11.001-3.398-2.825-7.786-2.016-10.452 1.101z"/></symbol><symbol id="icon-x" viewBox="0 0 24 24" fill="none"><path stroke-linecap="round" stroke-linejoin="round" stroke-width="2" d="M18 6 6 18M6 6l12 12"/></symbol></defs></svg>